<mxfile host="app.diagrams.net" modified="2021-05-03T20:30:58.009Z" agent="5.0 (Windows NT 10.0; Win64; x64) AppleWebKit/537.36 (KHTML, like Gecko) Chrome/90.0.4430.93 Safari/537.36" etag="ywAbNw58UNjV22vpI7GC" version="14.6.9" type="github" pages="3">
  <diagram id="JgHmCd8khv8O_gNe5zNz" name="Page-1">
    <mxGraphModel dx="1038" dy="585" grid="1" gridSize="10" guides="1" tooltips="1" connect="1" arrows="1" fold="1" page="1" pageScale="1" pageWidth="827" pageHeight="1169" math="0" shadow="0">
      <root>
        <mxCell id="0" />
        <mxCell id="1" parent="0" />
        <mxCell id="yFx5slKsvbSYXukqyTJ7-4" value="Patient" style="whiteSpace=wrap;html=1;align=center;" parent="1" vertex="1">
          <mxGeometry x="30" y="480" width="100" height="40" as="geometry" />
        </mxCell>
        <mxCell id="yFx5slKsvbSYXukqyTJ7-5" value="Doctor" style="whiteSpace=wrap;html=1;align=center;" parent="1" vertex="1">
          <mxGeometry x="50" y="100" width="100" height="40" as="geometry" />
        </mxCell>
        <mxCell id="yFx5slKsvbSYXukqyTJ7-6" value="Pharmacy" style="whiteSpace=wrap;html=1;align=center;" parent="1" vertex="1">
          <mxGeometry x="364" y="420" width="100" height="50" as="geometry" />
        </mxCell>
        <mxCell id="yFx5slKsvbSYXukqyTJ7-7" value="Drug" style="whiteSpace=wrap;html=1;align=center;" parent="1" vertex="1">
          <mxGeometry x="520" y="320" width="100" height="40" as="geometry" />
        </mxCell>
        <mxCell id="yFx5slKsvbSYXukqyTJ7-8" value="pharmaceutical company" style="whiteSpace=wrap;html=1;align=center;" parent="1" vertex="1">
          <mxGeometry x="430" y="70" width="100" height="40" as="geometry" />
        </mxCell>
        <mxCell id="yFx5slKsvbSYXukqyTJ7-9" value="Manufacture &amp;amp; Market" style="shape=rhombus;perimeter=rhombusPerimeter;whiteSpace=wrap;html=1;align=center;" parent="1" vertex="1">
          <mxGeometry x="500" y="170" width="120" height="60" as="geometry" />
        </mxCell>
        <mxCell id="yFx5slKsvbSYXukqyTJ7-10" value="" style="edgeStyle=entityRelationEdgeStyle;fontSize=12;html=1;endArrow=ERoneToMany;entryX=1;entryY=0.5;entryDx=0;entryDy=0;exitX=1;exitY=0.5;exitDx=0;exitDy=0;" parent="1" source="yFx5slKsvbSYXukqyTJ7-9" target="yFx5slKsvbSYXukqyTJ7-7" edge="1">
          <mxGeometry width="100" height="100" relative="1" as="geometry">
            <mxPoint x="360" y="340" as="sourcePoint" />
            <mxPoint x="460" y="240" as="targetPoint" />
          </mxGeometry>
        </mxCell>
        <mxCell id="yFx5slKsvbSYXukqyTJ7-11" value="" style="edgeStyle=entityRelationEdgeStyle;fontSize=12;html=1;endArrow=ERmandOne;entryX=1;entryY=0.5;entryDx=0;entryDy=0;exitX=0.5;exitY=0;exitDx=0;exitDy=0;" parent="1" source="yFx5slKsvbSYXukqyTJ7-9" target="yFx5slKsvbSYXukqyTJ7-8" edge="1">
          <mxGeometry width="100" height="100" relative="1" as="geometry">
            <mxPoint x="360" y="340" as="sourcePoint" />
            <mxPoint x="460" y="240" as="targetPoint" />
          </mxGeometry>
        </mxCell>
        <mxCell id="yFx5slKsvbSYXukqyTJ7-27" value="prescription" style="shape=associativeEntity;whiteSpace=wrap;html=1;align=center;" parent="1" vertex="1">
          <mxGeometry x="150" y="310" width="140" height="60" as="geometry" />
        </mxCell>
        <mxCell id="yFx5slKsvbSYXukqyTJ7-28" value="" style="edgeStyle=entityRelationEdgeStyle;fontSize=12;html=1;endArrow=ERzeroToMany;startArrow=ERmandOne;exitX=0.5;exitY=1;exitDx=0;exitDy=0;entryX=0.5;entryY=0;entryDx=0;entryDy=0;" parent="1" source="yFx5slKsvbSYXukqyTJ7-5" target="yFx5slKsvbSYXukqyTJ7-27" edge="1">
          <mxGeometry width="100" height="100" relative="1" as="geometry">
            <mxPoint x="360" y="350" as="sourcePoint" />
            <mxPoint x="460" y="250" as="targetPoint" />
          </mxGeometry>
        </mxCell>
        <mxCell id="yFx5slKsvbSYXukqyTJ7-30" value="" style="edgeStyle=entityRelationEdgeStyle;fontSize=12;html=1;endArrow=ERzeroToMany;startArrow=ERmandOne;exitX=1;exitY=0.5;exitDx=0;exitDy=0;entryX=0;entryY=0.5;entryDx=0;entryDy=0;" parent="1" source="yFx5slKsvbSYXukqyTJ7-4" target="yFx5slKsvbSYXukqyTJ7-27" edge="1">
          <mxGeometry width="100" height="100" relative="1" as="geometry">
            <mxPoint x="360" y="350" as="sourcePoint" />
            <mxPoint x="460" y="250" as="targetPoint" />
          </mxGeometry>
        </mxCell>
        <mxCell id="yFx5slKsvbSYXukqyTJ7-31" value="" style="edgeStyle=entityRelationEdgeStyle;fontSize=12;html=1;endArrow=ERzeroToMany;endFill=1;startArrow=ERzeroToMany;exitX=1;exitY=0.5;exitDx=0;exitDy=0;entryX=0;entryY=0.5;entryDx=0;entryDy=0;" parent="1" source="yFx5slKsvbSYXukqyTJ7-27" target="yFx5slKsvbSYXukqyTJ7-7" edge="1">
          <mxGeometry width="100" height="100" relative="1" as="geometry">
            <mxPoint x="360" y="350" as="sourcePoint" />
            <mxPoint x="460" y="250" as="targetPoint" />
          </mxGeometry>
        </mxCell>
        <mxCell id="yFx5slKsvbSYXukqyTJ7-32" value="Contract" style="shape=associativeEntity;whiteSpace=wrap;html=1;align=center;" parent="1" vertex="1">
          <mxGeometry x="324" y="210" width="140" height="60" as="geometry" />
        </mxCell>
        <mxCell id="yFx5slKsvbSYXukqyTJ7-33" value="" style="edgeStyle=entityRelationEdgeStyle;fontSize=12;html=1;endArrow=ERzeroToMany;startArrow=ERmandOne;exitX=0.436;exitY=0.008;exitDx=0;exitDy=0;exitPerimeter=0;entryX=0.5;entryY=1;entryDx=0;entryDy=0;" parent="1" source="yFx5slKsvbSYXukqyTJ7-6" target="yFx5slKsvbSYXukqyTJ7-32" edge="1">
          <mxGeometry width="100" height="100" relative="1" as="geometry">
            <mxPoint x="360" y="350" as="sourcePoint" />
            <mxPoint x="460" y="250" as="targetPoint" />
          </mxGeometry>
        </mxCell>
        <mxCell id="yFx5slKsvbSYXukqyTJ7-34" value="" style="edgeStyle=entityRelationEdgeStyle;fontSize=12;html=1;endArrow=ERzeroToMany;startArrow=ERmandOne;exitX=0;exitY=0.5;exitDx=0;exitDy=0;entryX=0.5;entryY=0;entryDx=0;entryDy=0;" parent="1" source="yFx5slKsvbSYXukqyTJ7-8" target="yFx5slKsvbSYXukqyTJ7-32" edge="1">
          <mxGeometry width="100" height="100" relative="1" as="geometry">
            <mxPoint x="410" y="130" as="sourcePoint" />
            <mxPoint x="370" y="210" as="targetPoint" />
          </mxGeometry>
        </mxCell>
        <mxCell id="yFx5slKsvbSYXukqyTJ7-35" value="" style="edgeStyle=entityRelationEdgeStyle;fontSize=12;html=1;endArrow=ERoneToMany;startArrow=ERoneToMany;exitX=0.5;exitY=0;exitDx=0;exitDy=0;entryX=1;entryY=0.5;entryDx=0;entryDy=0;" parent="1" source="yFx5slKsvbSYXukqyTJ7-7" target="yFx5slKsvbSYXukqyTJ7-32" edge="1">
          <mxGeometry width="100" height="100" relative="1" as="geometry">
            <mxPoint x="360" y="350" as="sourcePoint" />
            <mxPoint x="460" y="250" as="targetPoint" />
          </mxGeometry>
        </mxCell>
      </root>
    </mxGraphModel>
  </diagram>
  <diagram id="9BVRRYRIOYvO2J1RPefg" name="Page-2">
    <mxGraphModel dx="1038" dy="528" grid="1" gridSize="10" guides="1" tooltips="1" connect="1" arrows="1" fold="1" page="1" pageScale="1" pageWidth="827" pageHeight="1169" math="0" shadow="0">
      <root>
        <mxCell id="szn-OGyVYjDcFSz73ebH-0" />
        <mxCell id="szn-OGyVYjDcFSz73ebH-1" parent="szn-OGyVYjDcFSz73ebH-0" />
        <mxCell id="szn-OGyVYjDcFSz73ebH-3" value="SSN#&amp;nbsp; &amp;nbsp; &amp;nbsp;Name&amp;nbsp; &amp;nbsp; &amp;nbsp; Major&amp;nbsp; &amp;nbsp; &amp;nbsp; Bdate" style="whiteSpace=wrap;html=1;align=center;" vertex="1" parent="szn-OGyVYjDcFSz73ebH-1">
          <mxGeometry x="280" y="70" width="240" height="40" as="geometry" />
        </mxCell>
        <mxCell id="szn-OGyVYjDcFSz73ebH-4" value="Course#&amp;nbsp; &amp;nbsp; Cname&amp;nbsp; &amp;nbsp; Dept" style="whiteSpace=wrap;html=1;align=center;" vertex="1" parent="szn-OGyVYjDcFSz73ebH-1">
          <mxGeometry x="430" y="200" width="210" height="40" as="geometry" />
        </mxCell>
        <mxCell id="szn-OGyVYjDcFSz73ebH-5" value="&amp;nbsp;SSN#&amp;nbsp; &amp;nbsp; Course#&amp;nbsp; &amp;nbsp; Quater&amp;nbsp; &amp;nbsp; Grade" style="whiteSpace=wrap;html=1;align=center;" vertex="1" parent="szn-OGyVYjDcFSz73ebH-1">
          <mxGeometry x="330" y="300" width="240" height="40" as="geometry" />
        </mxCell>
        <mxCell id="szn-OGyVYjDcFSz73ebH-6" value="Course#&amp;nbsp; &amp;nbsp; Quater&amp;nbsp; &amp;nbsp;Book_ISBN#" style="whiteSpace=wrap;html=1;align=center;" vertex="1" parent="szn-OGyVYjDcFSz73ebH-1">
          <mxGeometry x="380" y="390" width="240" height="40" as="geometry" />
        </mxCell>
        <mxCell id="szn-OGyVYjDcFSz73ebH-7" value="Book_ISBN#&amp;nbsp; &amp;nbsp;Book_Title&amp;nbsp; &amp;nbsp;Publisher Author" style="whiteSpace=wrap;html=1;align=center;" vertex="1" parent="szn-OGyVYjDcFSz73ebH-1">
          <mxGeometry x="280" y="490" width="260" height="40" as="geometry" />
        </mxCell>
        <mxCell id="n6eHVAT3bYgNG2tsoSi--0" value="Student" style="text;html=1;strokeColor=none;fillColor=none;align=center;verticalAlign=middle;whiteSpace=wrap;rounded=0;" vertex="1" parent="szn-OGyVYjDcFSz73ebH-1">
          <mxGeometry x="280" y="50" width="40" height="20" as="geometry" />
        </mxCell>
        <mxCell id="n6eHVAT3bYgNG2tsoSi--1" value="Enroll&amp;nbsp;" style="text;html=1;strokeColor=none;fillColor=none;align=center;verticalAlign=middle;whiteSpace=wrap;rounded=0;" vertex="1" parent="szn-OGyVYjDcFSz73ebH-1">
          <mxGeometry x="330" y="280" width="40" height="20" as="geometry" />
        </mxCell>
        <mxCell id="n6eHVAT3bYgNG2tsoSi--2" value="Book_Adoption" style="text;html=1;strokeColor=none;fillColor=none;align=center;verticalAlign=middle;whiteSpace=wrap;rounded=0;" vertex="1" parent="szn-OGyVYjDcFSz73ebH-1">
          <mxGeometry x="400" y="370" width="40" height="20" as="geometry" />
        </mxCell>
        <mxCell id="n6eHVAT3bYgNG2tsoSi--3" value="Book&lt;span style=&quot;color: rgba(0 , 0 , 0 , 0) ; font-family: monospace ; font-size: 0px&quot;&gt;%3CmxGraphModel%3E%3Croot%3E%3CmxCell%20id%3D%220%22%2F%3E%3CmxCell%20id%3D%221%22%20parent%3D%220%22%2F%3E%3CmxCell%20id%3D%222%22%20value%3D%22SSN%23%26amp%3Bnbsp%3B%20%26amp%3Bnbsp%3B%20%26amp%3Bnbsp%3BName%26amp%3Bnbsp%3B%20%26amp%3Bnbsp%3B%20%26amp%3Bnbsp%3B%20Major%26amp%3Bnbsp%3B%20%26amp%3Bnbsp%3B%20%26amp%3Bnbsp%3B%20Bdate%22%20style%3D%22whiteSpace%3Dwrap%3Bhtml%3D1%3Balign%3Dcenter%3B%22%20vertex%3D%221%22%20parent%3D%221%22%3E%3CmxGeometry%20x%3D%22300%22%20y%3D%22150%22%20width%3D%22240%22%20height%3D%2240%22%20as%3D%22geometry%22%2F%3E%3C%2FmxCell%3E%3C%2Froot%3E%3C%2FmxGraphModel%3E&lt;/span&gt;" style="text;html=1;strokeColor=none;fillColor=none;align=center;verticalAlign=middle;whiteSpace=wrap;rounded=0;" vertex="1" parent="szn-OGyVYjDcFSz73ebH-1">
          <mxGeometry x="279" y="460" width="40" height="20" as="geometry" />
        </mxCell>
        <mxCell id="n6eHVAT3bYgNG2tsoSi--5" value="Course" style="text;html=1;strokeColor=none;fillColor=none;align=center;verticalAlign=middle;whiteSpace=wrap;rounded=0;" vertex="1" parent="szn-OGyVYjDcFSz73ebH-1">
          <mxGeometry x="450" y="180" width="40" height="20" as="geometry" />
        </mxCell>
        <mxCell id="n6eHVAT3bYgNG2tsoSi--6" value="" style="edgeStyle=segmentEdgeStyle;endArrow=classic;html=1;exitX=0;exitY=0.5;exitDx=0;exitDy=0;entryX=0;entryY=1;entryDx=0;entryDy=0;" edge="1" parent="szn-OGyVYjDcFSz73ebH-1" source="szn-OGyVYjDcFSz73ebH-5" target="szn-OGyVYjDcFSz73ebH-3">
          <mxGeometry width="50" height="50" relative="1" as="geometry">
            <mxPoint x="390" y="330" as="sourcePoint" />
            <mxPoint x="270" y="90" as="targetPoint" />
          </mxGeometry>
        </mxCell>
        <mxCell id="pSJmsI3mqJ78SUI4tMxK-0" value="" style="edgeStyle=segmentEdgeStyle;endArrow=classic;html=1;exitX=0.5;exitY=0;exitDx=0;exitDy=0;entryX=0;entryY=1;entryDx=0;entryDy=0;" edge="1" parent="szn-OGyVYjDcFSz73ebH-1" source="szn-OGyVYjDcFSz73ebH-5" target="szn-OGyVYjDcFSz73ebH-4">
          <mxGeometry width="50" height="50" relative="1" as="geometry">
            <mxPoint x="340" y="330" as="sourcePoint" />
            <mxPoint x="290" y="120" as="targetPoint" />
            <Array as="points">
              <mxPoint x="430" y="300" />
            </Array>
          </mxGeometry>
        </mxCell>
        <mxCell id="pSJmsI3mqJ78SUI4tMxK-1" value="" style="edgeStyle=segmentEdgeStyle;endArrow=classic;html=1;exitX=1;exitY=0.5;exitDx=0;exitDy=0;entryX=0.96;entryY=1.05;entryDx=0;entryDy=0;entryPerimeter=0;" edge="1" parent="szn-OGyVYjDcFSz73ebH-1" source="szn-OGyVYjDcFSz73ebH-6" target="szn-OGyVYjDcFSz73ebH-4">
          <mxGeometry width="50" height="50" relative="1" as="geometry">
            <mxPoint x="340" y="330" as="sourcePoint" />
            <mxPoint x="290" y="120" as="targetPoint" />
          </mxGeometry>
        </mxCell>
        <mxCell id="pSJmsI3mqJ78SUI4tMxK-2" value="" style="edgeStyle=segmentEdgeStyle;endArrow=classic;html=1;entryX=0.25;entryY=0;entryDx=0;entryDy=0;exitX=0;exitY=0.75;exitDx=0;exitDy=0;" edge="1" parent="szn-OGyVYjDcFSz73ebH-1" source="szn-OGyVYjDcFSz73ebH-6" target="szn-OGyVYjDcFSz73ebH-7">
          <mxGeometry width="50" height="50" relative="1" as="geometry">
            <mxPoint x="590" y="440" as="sourcePoint" />
            <mxPoint x="650" y="250" as="targetPoint" />
            <Array as="points">
              <mxPoint x="345" y="420" />
            </Array>
          </mxGeometry>
        </mxCell>
      </root>
    </mxGraphModel>
  </diagram>
  <diagram id="Od8hT_eM-plqTq4LekAT" name="Page-3">
    <mxGraphModel dx="1038" dy="585" grid="0" gridSize="10" guides="1" tooltips="1" connect="1" arrows="1" fold="1" page="1" pageScale="1" pageWidth="827" pageHeight="1169" math="0" shadow="0">
      <root>
        <mxCell id="VAMYPOj8Qz0PQbzMC9rJ-0" />
        <mxCell id="VAMYPOj8Qz0PQbzMC9rJ-1" parent="VAMYPOj8Qz0PQbzMC9rJ-0" />
        <mxCell id="VAMYPOj8Qz0PQbzMC9rJ-2" value="Projects" style="shape=table;startSize=30;container=1;collapsible=1;childLayout=tableLayout;fixedRows=1;rowLines=0;fontStyle=1;align=center;resizeLast=1;" parent="VAMYPOj8Qz0PQbzMC9rJ-1" vertex="1">
          <mxGeometry x="522" y="68" width="180" height="259" as="geometry" />
        </mxCell>
        <mxCell id="VAMYPOj8Qz0PQbzMC9rJ-3" value="" style="shape=partialRectangle;collapsible=0;dropTarget=0;pointerEvents=0;fillColor=none;top=0;left=0;bottom=1;right=0;points=[[0,0.5],[1,0.5]];portConstraint=eastwest;" parent="VAMYPOj8Qz0PQbzMC9rJ-2" vertex="1">
          <mxGeometry y="30" width="180" height="30" as="geometry" />
        </mxCell>
        <mxCell id="VAMYPOj8Qz0PQbzMC9rJ-4" value="PK" style="shape=partialRectangle;connectable=0;fillColor=none;top=0;left=0;bottom=0;right=0;fontStyle=1;overflow=hidden;" parent="VAMYPOj8Qz0PQbzMC9rJ-3" vertex="1">
          <mxGeometry width="30" height="30" as="geometry" />
        </mxCell>
        <mxCell id="VAMYPOj8Qz0PQbzMC9rJ-5" value="ProjectID" style="shape=partialRectangle;connectable=0;fillColor=none;top=0;left=0;bottom=0;right=0;align=left;spacingLeft=6;fontStyle=5;overflow=hidden;" parent="VAMYPOj8Qz0PQbzMC9rJ-3" vertex="1">
          <mxGeometry x="30" width="150" height="30" as="geometry" />
        </mxCell>
        <mxCell id="VAMYPOj8Qz0PQbzMC9rJ-6" value="" style="shape=partialRectangle;collapsible=0;dropTarget=0;pointerEvents=0;fillColor=none;top=0;left=0;bottom=0;right=0;points=[[0,0.5],[1,0.5]];portConstraint=eastwest;" parent="VAMYPOj8Qz0PQbzMC9rJ-2" vertex="1">
          <mxGeometry y="60" width="180" height="30" as="geometry" />
        </mxCell>
        <mxCell id="VAMYPOj8Qz0PQbzMC9rJ-7" value="" style="shape=partialRectangle;connectable=0;fillColor=none;top=0;left=0;bottom=0;right=0;editable=1;overflow=hidden;" parent="VAMYPOj8Qz0PQbzMC9rJ-6" vertex="1">
          <mxGeometry width="30" height="30" as="geometry" />
        </mxCell>
        <mxCell id="VAMYPOj8Qz0PQbzMC9rJ-8" value="ProjectName" style="shape=partialRectangle;connectable=0;fillColor=none;top=0;left=0;bottom=0;right=0;align=left;spacingLeft=6;overflow=hidden;" parent="VAMYPOj8Qz0PQbzMC9rJ-6" vertex="1">
          <mxGeometry x="30" width="150" height="30" as="geometry" />
        </mxCell>
        <mxCell id="VAMYPOj8Qz0PQbzMC9rJ-9" value="" style="shape=partialRectangle;collapsible=0;dropTarget=0;pointerEvents=0;fillColor=none;top=0;left=0;bottom=0;right=0;points=[[0,0.5],[1,0.5]];portConstraint=eastwest;" parent="VAMYPOj8Qz0PQbzMC9rJ-2" vertex="1">
          <mxGeometry y="90" width="180" height="30" as="geometry" />
        </mxCell>
        <mxCell id="VAMYPOj8Qz0PQbzMC9rJ-10" value="" style="shape=partialRectangle;connectable=0;fillColor=none;top=0;left=0;bottom=0;right=0;editable=1;overflow=hidden;" parent="VAMYPOj8Qz0PQbzMC9rJ-9" vertex="1">
          <mxGeometry width="30" height="30" as="geometry" />
        </mxCell>
        <mxCell id="VAMYPOj8Qz0PQbzMC9rJ-11" value="ProjectStartDate" style="shape=partialRectangle;connectable=0;fillColor=none;top=0;left=0;bottom=0;right=0;align=left;spacingLeft=6;overflow=hidden;" parent="VAMYPOj8Qz0PQbzMC9rJ-9" vertex="1">
          <mxGeometry x="30" width="150" height="30" as="geometry" />
        </mxCell>
        <mxCell id="VAMYPOj8Qz0PQbzMC9rJ-12" value="" style="shape=partialRectangle;collapsible=0;dropTarget=0;pointerEvents=0;fillColor=none;top=0;left=0;bottom=0;right=0;points=[[0,0.5],[1,0.5]];portConstraint=eastwest;" parent="VAMYPOj8Qz0PQbzMC9rJ-2" vertex="1">
          <mxGeometry y="120" width="180" height="30" as="geometry" />
        </mxCell>
        <mxCell id="VAMYPOj8Qz0PQbzMC9rJ-13" value="" style="shape=partialRectangle;connectable=0;fillColor=none;top=0;left=0;bottom=0;right=0;editable=1;overflow=hidden;" parent="VAMYPOj8Qz0PQbzMC9rJ-12" vertex="1">
          <mxGeometry width="30" height="30" as="geometry" />
        </mxCell>
        <mxCell id="VAMYPOj8Qz0PQbzMC9rJ-14" value="ProjectDescription" style="shape=partialRectangle;connectable=0;fillColor=none;top=0;left=0;bottom=0;right=0;align=left;spacingLeft=6;overflow=hidden;" parent="VAMYPOj8Qz0PQbzMC9rJ-12" vertex="1">
          <mxGeometry x="30" width="150" height="30" as="geometry" />
        </mxCell>
        <mxCell id="VAMYPOj8Qz0PQbzMC9rJ-17" value="" style="shape=partialRectangle;collapsible=0;dropTarget=0;pointerEvents=0;fillColor=none;top=0;left=0;bottom=0;right=0;points=[[0,0.5],[1,0.5]];portConstraint=eastwest;" parent="VAMYPOj8Qz0PQbzMC9rJ-1" vertex="1">
          <mxGeometry x="523" y="214" width="180" height="30" as="geometry" />
        </mxCell>
        <mxCell id="VAMYPOj8Qz0PQbzMC9rJ-18" value="" style="shape=partialRectangle;connectable=0;fillColor=none;top=0;left=0;bottom=0;right=0;editable=1;overflow=hidden;" parent="VAMYPOj8Qz0PQbzMC9rJ-17" vertex="1">
          <mxGeometry width="30" height="30" as="geometry" />
        </mxCell>
        <mxCell id="VAMYPOj8Qz0PQbzMC9rJ-19" value="ProjectDetail" style="shape=partialRectangle;connectable=0;fillColor=none;top=0;left=0;bottom=0;right=0;align=left;spacingLeft=6;overflow=hidden;" parent="VAMYPOj8Qz0PQbzMC9rJ-17" vertex="1">
          <mxGeometry x="30" width="150" height="30" as="geometry" />
        </mxCell>
        <mxCell id="VAMYPOj8Qz0PQbzMC9rJ-20" value="" style="shape=partialRectangle;collapsible=0;dropTarget=0;pointerEvents=0;fillColor=none;top=0;left=0;bottom=0;right=0;points=[[0,0.5],[1,0.5]];portConstraint=eastwest;" parent="VAMYPOj8Qz0PQbzMC9rJ-1" vertex="1">
          <mxGeometry x="520" y="243" width="180" height="30" as="geometry" />
        </mxCell>
        <mxCell id="VAMYPOj8Qz0PQbzMC9rJ-21" value="" style="shape=partialRectangle;connectable=0;fillColor=none;top=0;left=0;bottom=0;right=0;editable=1;overflow=hidden;" parent="VAMYPOj8Qz0PQbzMC9rJ-20" vertex="1">
          <mxGeometry width="30" height="30" as="geometry" />
        </mxCell>
        <mxCell id="VAMYPOj8Qz0PQbzMC9rJ-22" value="ProejctCompleteOn" style="shape=partialRectangle;connectable=0;fillColor=none;top=0;left=0;bottom=0;right=0;align=left;spacingLeft=6;overflow=hidden;" parent="VAMYPOj8Qz0PQbzMC9rJ-20" vertex="1">
          <mxGeometry x="30" width="150" height="30" as="geometry" />
        </mxCell>
        <mxCell id="VAMYPOj8Qz0PQbzMC9rJ-29" value="Employee" style="shape=table;startSize=30;container=1;collapsible=1;childLayout=tableLayout;fixedRows=1;rowLines=0;fontStyle=1;align=center;resizeLast=1;" parent="VAMYPOj8Qz0PQbzMC9rJ-1" vertex="1">
          <mxGeometry x="53" y="388" width="180" height="245" as="geometry" />
        </mxCell>
        <mxCell id="VAMYPOj8Qz0PQbzMC9rJ-30" value="" style="shape=partialRectangle;collapsible=0;dropTarget=0;pointerEvents=0;fillColor=none;top=0;left=0;bottom=1;right=0;points=[[0,0.5],[1,0.5]];portConstraint=eastwest;" parent="VAMYPOj8Qz0PQbzMC9rJ-29" vertex="1">
          <mxGeometry y="30" width="180" height="30" as="geometry" />
        </mxCell>
        <mxCell id="VAMYPOj8Qz0PQbzMC9rJ-31" value="PK" style="shape=partialRectangle;connectable=0;fillColor=none;top=0;left=0;bottom=0;right=0;fontStyle=1;overflow=hidden;" parent="VAMYPOj8Qz0PQbzMC9rJ-30" vertex="1">
          <mxGeometry width="30" height="30" as="geometry" />
        </mxCell>
        <mxCell id="VAMYPOj8Qz0PQbzMC9rJ-32" value="EmployeeID" style="shape=partialRectangle;connectable=0;fillColor=none;top=0;left=0;bottom=0;right=0;align=left;spacingLeft=6;fontStyle=5;overflow=hidden;" parent="VAMYPOj8Qz0PQbzMC9rJ-30" vertex="1">
          <mxGeometry x="30" width="150" height="30" as="geometry" />
        </mxCell>
        <mxCell id="VAMYPOj8Qz0PQbzMC9rJ-33" value="" style="shape=partialRectangle;collapsible=0;dropTarget=0;pointerEvents=0;fillColor=none;top=0;left=0;bottom=0;right=0;points=[[0,0.5],[1,0.5]];portConstraint=eastwest;" parent="VAMYPOj8Qz0PQbzMC9rJ-29" vertex="1">
          <mxGeometry y="60" width="180" height="30" as="geometry" />
        </mxCell>
        <mxCell id="VAMYPOj8Qz0PQbzMC9rJ-34" value="" style="shape=partialRectangle;connectable=0;fillColor=none;top=0;left=0;bottom=0;right=0;editable=1;overflow=hidden;" parent="VAMYPOj8Qz0PQbzMC9rJ-33" vertex="1">
          <mxGeometry width="30" height="30" as="geometry" />
        </mxCell>
        <mxCell id="VAMYPOj8Qz0PQbzMC9rJ-35" value="EmployeeLastName" style="shape=partialRectangle;connectable=0;fillColor=none;top=0;left=0;bottom=0;right=0;align=left;spacingLeft=6;overflow=hidden;" parent="VAMYPOj8Qz0PQbzMC9rJ-33" vertex="1">
          <mxGeometry x="30" width="150" height="30" as="geometry" />
        </mxCell>
        <mxCell id="VAMYPOj8Qz0PQbzMC9rJ-36" value="" style="shape=partialRectangle;collapsible=0;dropTarget=0;pointerEvents=0;fillColor=none;top=0;left=0;bottom=0;right=0;points=[[0,0.5],[1,0.5]];portConstraint=eastwest;" parent="VAMYPOj8Qz0PQbzMC9rJ-29" vertex="1">
          <mxGeometry y="90" width="180" height="30" as="geometry" />
        </mxCell>
        <mxCell id="VAMYPOj8Qz0PQbzMC9rJ-37" value="" style="shape=partialRectangle;connectable=0;fillColor=none;top=0;left=0;bottom=0;right=0;editable=1;overflow=hidden;" parent="VAMYPOj8Qz0PQbzMC9rJ-36" vertex="1">
          <mxGeometry width="30" height="30" as="geometry" />
        </mxCell>
        <mxCell id="VAMYPOj8Qz0PQbzMC9rJ-38" value="EmployeeFirstName" style="shape=partialRectangle;connectable=0;fillColor=none;top=0;left=0;bottom=0;right=0;align=left;spacingLeft=6;overflow=hidden;" parent="VAMYPOj8Qz0PQbzMC9rJ-36" vertex="1">
          <mxGeometry x="30" width="150" height="30" as="geometry" />
        </mxCell>
        <mxCell id="VAMYPOj8Qz0PQbzMC9rJ-39" value="" style="shape=partialRectangle;collapsible=0;dropTarget=0;pointerEvents=0;fillColor=none;top=0;left=0;bottom=0;right=0;points=[[0,0.5],[1,0.5]];portConstraint=eastwest;" parent="VAMYPOj8Qz0PQbzMC9rJ-29" vertex="1">
          <mxGeometry y="120" width="180" height="30" as="geometry" />
        </mxCell>
        <mxCell id="VAMYPOj8Qz0PQbzMC9rJ-40" value="" style="shape=partialRectangle;connectable=0;fillColor=none;top=0;left=0;bottom=0;right=0;editable=1;overflow=hidden;" parent="VAMYPOj8Qz0PQbzMC9rJ-39" vertex="1">
          <mxGeometry width="30" height="30" as="geometry" />
        </mxCell>
        <mxCell id="VAMYPOj8Qz0PQbzMC9rJ-41" value="EmployeeHireDate" style="shape=partialRectangle;connectable=0;fillColor=none;top=0;left=0;bottom=0;right=0;align=left;spacingLeft=6;overflow=hidden;" parent="VAMYPOj8Qz0PQbzMC9rJ-39" vertex="1">
          <mxGeometry x="30" width="150" height="30" as="geometry" />
        </mxCell>
        <mxCell id="VAMYPOj8Qz0PQbzMC9rJ-42" value="" style="shape=partialRectangle;collapsible=0;dropTarget=0;pointerEvents=0;fillColor=none;top=0;left=0;bottom=0;right=0;points=[[0,0.5],[1,0.5]];portConstraint=eastwest;" parent="VAMYPOj8Qz0PQbzMC9rJ-1" vertex="1">
          <mxGeometry x="54" y="534" width="180" height="30" as="geometry" />
        </mxCell>
        <mxCell id="VAMYPOj8Qz0PQbzMC9rJ-43" value="" style="shape=partialRectangle;connectable=0;fillColor=none;top=0;left=0;bottom=0;right=0;editable=1;overflow=hidden;" parent="VAMYPOj8Qz0PQbzMC9rJ-42" vertex="1">
          <mxGeometry width="30" height="30" as="geometry" />
        </mxCell>
        <mxCell id="VAMYPOj8Qz0PQbzMC9rJ-44" value="EmployeeStatus" style="shape=partialRectangle;connectable=0;fillColor=none;top=0;left=0;bottom=0;right=0;align=left;spacingLeft=6;overflow=hidden;" parent="VAMYPOj8Qz0PQbzMC9rJ-42" vertex="1">
          <mxGeometry x="30" width="150" height="30" as="geometry" />
        </mxCell>
        <mxCell id="VAMYPOj8Qz0PQbzMC9rJ-45" value="" style="shape=partialRectangle;collapsible=0;dropTarget=0;pointerEvents=0;fillColor=none;top=0;left=0;bottom=0;right=0;points=[[0,0.5],[1,0.5]];portConstraint=eastwest;" parent="VAMYPOj8Qz0PQbzMC9rJ-1" vertex="1">
          <mxGeometry x="54" y="562" width="180" height="30" as="geometry" />
        </mxCell>
        <mxCell id="VAMYPOj8Qz0PQbzMC9rJ-46" value="" style="shape=partialRectangle;connectable=0;fillColor=none;top=0;left=0;bottom=0;right=0;editable=1;overflow=hidden;" parent="VAMYPOj8Qz0PQbzMC9rJ-45" vertex="1">
          <mxGeometry width="30" height="30" as="geometry" />
        </mxCell>
        <mxCell id="VAMYPOj8Qz0PQbzMC9rJ-47" value="SupervisorID" style="shape=partialRectangle;connectable=0;fillColor=none;top=0;left=0;bottom=0;right=0;align=left;spacingLeft=6;overflow=hidden;" parent="VAMYPOj8Qz0PQbzMC9rJ-45" vertex="1">
          <mxGeometry x="30" width="150" height="30" as="geometry" />
        </mxCell>
        <mxCell id="VAMYPOj8Qz0PQbzMC9rJ-48" value="" style="shape=partialRectangle;collapsible=0;dropTarget=0;pointerEvents=0;fillColor=none;top=0;left=0;bottom=0;right=0;points=[[0,0.5],[1,0.5]];portConstraint=eastwest;" parent="VAMYPOj8Qz0PQbzMC9rJ-1" vertex="1">
          <mxGeometry x="53" y="591" width="180" height="30" as="geometry" />
        </mxCell>
        <mxCell id="VAMYPOj8Qz0PQbzMC9rJ-49" value="" style="shape=partialRectangle;connectable=0;fillColor=none;top=0;left=0;bottom=0;right=0;editable=1;overflow=hidden;" parent="VAMYPOj8Qz0PQbzMC9rJ-48" vertex="1">
          <mxGeometry width="30" height="30" as="geometry" />
        </mxCell>
        <mxCell id="VAMYPOj8Qz0PQbzMC9rJ-50" value="SocialSecurityNumber" style="shape=partialRectangle;connectable=0;fillColor=none;top=0;left=0;bottom=0;right=0;align=left;spacingLeft=6;overflow=hidden;" parent="VAMYPOj8Qz0PQbzMC9rJ-48" vertex="1">
          <mxGeometry x="30" width="150" height="30" as="geometry" />
        </mxCell>
        <mxCell id="VAMYPOj8Qz0PQbzMC9rJ-64" value="Project_Modules" style="shape=table;startSize=30;container=1;collapsible=1;childLayout=tableLayout;fixedRows=1;rowLines=0;fontStyle=1;align=center;resizeLast=1;" parent="VAMYPOj8Qz0PQbzMC9rJ-1" vertex="1">
          <mxGeometry x="66.21" y="81.18" width="209.78569684709836" height="232.64289202008925" as="geometry" />
        </mxCell>
        <mxCell id="VAMYPOj8Qz0PQbzMC9rJ-65" value="" style="shape=partialRectangle;collapsible=0;dropTarget=0;pointerEvents=0;fillColor=none;top=0;left=0;bottom=1;right=0;points=[[0,0.5],[1,0.5]];portConstraint=eastwest;" parent="VAMYPOj8Qz0PQbzMC9rJ-64" vertex="1">
          <mxGeometry y="30" width="209.78569684709836" height="30" as="geometry" />
        </mxCell>
        <mxCell id="VAMYPOj8Qz0PQbzMC9rJ-66" value="PK" style="shape=partialRectangle;connectable=0;fillColor=none;top=0;left=0;bottom=0;right=0;fontStyle=1;overflow=hidden;" parent="VAMYPOj8Qz0PQbzMC9rJ-65" vertex="1">
          <mxGeometry width="34.928606305803925" height="30" as="geometry" />
        </mxCell>
        <mxCell id="VAMYPOj8Qz0PQbzMC9rJ-67" value="ModuleID" style="shape=partialRectangle;connectable=0;fillColor=none;top=0;left=0;bottom=0;right=0;align=left;spacingLeft=6;fontStyle=5;overflow=hidden;" parent="VAMYPOj8Qz0PQbzMC9rJ-65" vertex="1">
          <mxGeometry x="34.928606305803925" width="174.85709054129444" height="30" as="geometry" />
        </mxCell>
        <mxCell id="VAMYPOj8Qz0PQbzMC9rJ-68" value="" style="shape=partialRectangle;collapsible=0;dropTarget=0;pointerEvents=0;fillColor=none;top=0;left=0;bottom=0;right=0;points=[[0,0.5],[1,0.5]];portConstraint=eastwest;fontStyle=1" parent="VAMYPOj8Qz0PQbzMC9rJ-64" vertex="1">
          <mxGeometry y="60" width="209.78569684709836" height="30" as="geometry" />
        </mxCell>
        <mxCell id="VAMYPOj8Qz0PQbzMC9rJ-69" value="FK1" style="shape=partialRectangle;connectable=0;fillColor=none;top=0;left=0;bottom=0;right=0;editable=1;overflow=hidden;fontStyle=1" parent="VAMYPOj8Qz0PQbzMC9rJ-68" vertex="1">
          <mxGeometry width="34.928606305803925" height="30" as="geometry" />
        </mxCell>
        <mxCell id="VAMYPOj8Qz0PQbzMC9rJ-70" value="ProjectID" style="shape=partialRectangle;connectable=0;fillColor=none;top=0;left=0;bottom=0;right=0;align=left;spacingLeft=6;overflow=hidden;fontStyle=1" parent="VAMYPOj8Qz0PQbzMC9rJ-68" vertex="1">
          <mxGeometry x="34.928606305803925" width="174.85709054129444" height="30" as="geometry" />
        </mxCell>
        <mxCell id="VAMYPOj8Qz0PQbzMC9rJ-71" value="" style="shape=partialRectangle;collapsible=0;dropTarget=0;pointerEvents=0;fillColor=none;top=0;left=0;bottom=0;right=0;points=[[0,0.5],[1,0.5]];portConstraint=eastwest;" parent="VAMYPOj8Qz0PQbzMC9rJ-64" vertex="1">
          <mxGeometry y="90" width="209.78569684709836" height="42" as="geometry" />
        </mxCell>
        <mxCell id="VAMYPOj8Qz0PQbzMC9rJ-72" value="FK2" style="shape=partialRectangle;connectable=0;fillColor=none;top=0;left=0;bottom=0;right=0;editable=1;overflow=hidden;fontStyle=1" parent="VAMYPOj8Qz0PQbzMC9rJ-71" vertex="1">
          <mxGeometry width="34.928606305803925" height="42" as="geometry" />
        </mxCell>
        <mxCell id="VAMYPOj8Qz0PQbzMC9rJ-73" value="EmployeeID" style="shape=partialRectangle;connectable=0;fillColor=none;top=0;left=0;bottom=0;right=0;align=left;spacingLeft=6;overflow=hidden;fontStyle=1" parent="VAMYPOj8Qz0PQbzMC9rJ-71" vertex="1">
          <mxGeometry x="34.928606305803925" width="174.85709054129444" height="42" as="geometry" />
        </mxCell>
        <mxCell id="VAMYPOj8Qz0PQbzMC9rJ-74" value="" style="shape=partialRectangle;collapsible=0;dropTarget=0;pointerEvents=0;fillColor=none;top=0;left=0;bottom=0;right=0;points=[[0,0.5],[1,0.5]];portConstraint=eastwest;" parent="VAMYPOj8Qz0PQbzMC9rJ-64" vertex="1">
          <mxGeometry y="132" width="209.78569684709836" height="33" as="geometry" />
        </mxCell>
        <mxCell id="VAMYPOj8Qz0PQbzMC9rJ-75" value="" style="shape=partialRectangle;connectable=0;fillColor=none;top=0;left=0;bottom=0;right=0;editable=1;overflow=hidden;" parent="VAMYPOj8Qz0PQbzMC9rJ-74" vertex="1">
          <mxGeometry width="34.928606305803925" height="33" as="geometry" />
        </mxCell>
        <mxCell id="VAMYPOj8Qz0PQbzMC9rJ-76" value="ProjectModuleComletedOn" style="shape=partialRectangle;connectable=0;fillColor=none;top=0;left=0;bottom=0;right=0;align=left;spacingLeft=6;overflow=hidden;" parent="VAMYPOj8Qz0PQbzMC9rJ-74" vertex="1">
          <mxGeometry x="34.928606305803925" width="174.85709054129444" height="33" as="geometry" />
        </mxCell>
        <mxCell id="VAMYPOj8Qz0PQbzMC9rJ-78" value="" style="shape=partialRectangle;collapsible=0;dropTarget=0;pointerEvents=0;fillColor=none;top=0;left=0;bottom=0;right=0;points=[[0,0.5],[1,0.5]];portConstraint=eastwest;" parent="VAMYPOj8Qz0PQbzMC9rJ-1" vertex="1">
          <mxGeometry x="67" y="240" width="209" height="30" as="geometry" />
        </mxCell>
        <mxCell id="VAMYPOj8Qz0PQbzMC9rJ-79" value="" style="shape=partialRectangle;connectable=0;fillColor=none;top=0;left=0;bottom=0;right=0;editable=1;overflow=hidden;" parent="VAMYPOj8Qz0PQbzMC9rJ-78" vertex="1">
          <mxGeometry width="34.833333333333336" height="30" as="geometry" />
        </mxCell>
        <mxCell id="VAMYPOj8Qz0PQbzMC9rJ-80" value="ProjectModuleDate" style="shape=partialRectangle;connectable=0;fillColor=none;top=0;left=0;bottom=0;right=0;align=left;spacingLeft=6;overflow=hidden;" parent="VAMYPOj8Qz0PQbzMC9rJ-78" vertex="1">
          <mxGeometry x="34.833333333333336" width="174.16666666666669" height="30" as="geometry" />
        </mxCell>
        <mxCell id="VAMYPOj8Qz0PQbzMC9rJ-82" value="" style="shape=partialRectangle;collapsible=0;dropTarget=0;pointerEvents=0;fillColor=none;top=0;left=0;bottom=0;right=0;points=[[0,0.5],[1,0.5]];portConstraint=eastwest;" parent="VAMYPOj8Qz0PQbzMC9rJ-1" vertex="1">
          <mxGeometry x="70" y="271" width="209" height="30" as="geometry" />
        </mxCell>
        <mxCell id="VAMYPOj8Qz0PQbzMC9rJ-83" value="" style="shape=partialRectangle;connectable=0;fillColor=none;top=0;left=0;bottom=0;right=0;editable=1;overflow=hidden;" parent="VAMYPOj8Qz0PQbzMC9rJ-82" vertex="1">
          <mxGeometry width="34.833333333333336" height="30" as="geometry" />
        </mxCell>
        <mxCell id="VAMYPOj8Qz0PQbzMC9rJ-84" value="ProjectmoduleDescription" style="shape=partialRectangle;connectable=0;fillColor=none;top=0;left=0;bottom=0;right=0;align=left;spacingLeft=6;overflow=hidden;" parent="VAMYPOj8Qz0PQbzMC9rJ-82" vertex="1">
          <mxGeometry x="34.833333333333336" width="174.16666666666669" height="30" as="geometry" />
        </mxCell>
        <mxCell id="VAMYPOj8Qz0PQbzMC9rJ-89" value="Work_Done" style="shape=table;startSize=30;container=1;collapsible=1;childLayout=tableLayout;fixedRows=1;rowLines=0;fontStyle=1;align=center;resizeLast=1;" parent="VAMYPOj8Qz0PQbzMC9rJ-1" vertex="1">
          <mxGeometry x="514" y="562" width="180" height="291" as="geometry" />
        </mxCell>
        <mxCell id="VAMYPOj8Qz0PQbzMC9rJ-90" value="" style="shape=partialRectangle;collapsible=0;dropTarget=0;pointerEvents=0;fillColor=none;top=0;left=0;bottom=1;right=0;points=[[0,0.5],[1,0.5]];portConstraint=eastwest;" parent="VAMYPOj8Qz0PQbzMC9rJ-89" vertex="1">
          <mxGeometry y="30" width="180" height="30" as="geometry" />
        </mxCell>
        <mxCell id="VAMYPOj8Qz0PQbzMC9rJ-91" value="PK" style="shape=partialRectangle;connectable=0;fillColor=none;top=0;left=0;bottom=0;right=0;fontStyle=1;overflow=hidden;" parent="VAMYPOj8Qz0PQbzMC9rJ-90" vertex="1">
          <mxGeometry width="30" height="30" as="geometry" />
        </mxCell>
        <mxCell id="VAMYPOj8Qz0PQbzMC9rJ-92" value="WorkDoneID" style="shape=partialRectangle;connectable=0;fillColor=none;top=0;left=0;bottom=0;right=0;align=left;spacingLeft=6;fontStyle=5;overflow=hidden;" parent="VAMYPOj8Qz0PQbzMC9rJ-90" vertex="1">
          <mxGeometry x="30" width="150" height="30" as="geometry" />
        </mxCell>
        <mxCell id="VAMYPOj8Qz0PQbzMC9rJ-93" value="" style="shape=partialRectangle;collapsible=0;dropTarget=0;pointerEvents=0;fillColor=none;top=0;left=0;bottom=0;right=0;points=[[0,0.5],[1,0.5]];portConstraint=eastwest;" parent="VAMYPOj8Qz0PQbzMC9rJ-89" vertex="1">
          <mxGeometry y="60" width="180" height="30" as="geometry" />
        </mxCell>
        <mxCell id="VAMYPOj8Qz0PQbzMC9rJ-94" value="FK2" style="shape=partialRectangle;connectable=0;fillColor=none;top=0;left=0;bottom=0;right=0;editable=1;overflow=hidden;fontStyle=1" parent="VAMYPOj8Qz0PQbzMC9rJ-93" vertex="1">
          <mxGeometry width="30" height="30" as="geometry" />
        </mxCell>
        <mxCell id="VAMYPOj8Qz0PQbzMC9rJ-95" value="ModuleID" style="shape=partialRectangle;connectable=0;fillColor=none;top=0;left=0;bottom=0;right=0;align=left;spacingLeft=6;overflow=hidden;fontStyle=1" parent="VAMYPOj8Qz0PQbzMC9rJ-93" vertex="1">
          <mxGeometry x="30" width="150" height="30" as="geometry" />
        </mxCell>
        <mxCell id="VAMYPOj8Qz0PQbzMC9rJ-96" value="" style="shape=partialRectangle;collapsible=0;dropTarget=0;pointerEvents=0;fillColor=none;top=0;left=0;bottom=0;right=0;points=[[0,0.5],[1,0.5]];portConstraint=eastwest;" parent="VAMYPOj8Qz0PQbzMC9rJ-89" vertex="1">
          <mxGeometry y="90" width="180" height="30" as="geometry" />
        </mxCell>
        <mxCell id="VAMYPOj8Qz0PQbzMC9rJ-97" value="" style="shape=partialRectangle;connectable=0;fillColor=none;top=0;left=0;bottom=0;right=0;editable=1;overflow=hidden;" parent="VAMYPOj8Qz0PQbzMC9rJ-96" vertex="1">
          <mxGeometry width="30" height="30" as="geometry" />
        </mxCell>
        <mxCell id="VAMYPOj8Qz0PQbzMC9rJ-98" value="WorkDoneDate" style="shape=partialRectangle;connectable=0;fillColor=none;top=0;left=0;bottom=0;right=0;align=left;spacingLeft=6;overflow=hidden;" parent="VAMYPOj8Qz0PQbzMC9rJ-96" vertex="1">
          <mxGeometry x="30" width="150" height="30" as="geometry" />
        </mxCell>
        <mxCell id="VAMYPOj8Qz0PQbzMC9rJ-99" value="" style="shape=partialRectangle;collapsible=0;dropTarget=0;pointerEvents=0;fillColor=none;top=0;left=0;bottom=0;right=0;points=[[0,0.5],[1,0.5]];portConstraint=eastwest;" parent="VAMYPOj8Qz0PQbzMC9rJ-89" vertex="1">
          <mxGeometry y="120" width="180" height="30" as="geometry" />
        </mxCell>
        <mxCell id="VAMYPOj8Qz0PQbzMC9rJ-100" value="" style="shape=partialRectangle;connectable=0;fillColor=none;top=0;left=0;bottom=0;right=0;editable=1;overflow=hidden;" parent="VAMYPOj8Qz0PQbzMC9rJ-99" vertex="1">
          <mxGeometry width="30" height="30" as="geometry" />
        </mxCell>
        <mxCell id="VAMYPOj8Qz0PQbzMC9rJ-101" value="WorkDoneDescription" style="shape=partialRectangle;connectable=0;fillColor=none;top=0;left=0;bottom=0;right=0;align=left;spacingLeft=6;overflow=hidden;" parent="VAMYPOj8Qz0PQbzMC9rJ-99" vertex="1">
          <mxGeometry x="30" width="150" height="30" as="geometry" />
        </mxCell>
        <mxCell id="VAMYPOj8Qz0PQbzMC9rJ-102" value="" style="shape=partialRectangle;collapsible=0;dropTarget=0;pointerEvents=0;fillColor=none;top=0;left=0;bottom=0;right=0;points=[[0,0.5],[1,0.5]];portConstraint=eastwest;" parent="VAMYPOj8Qz0PQbzMC9rJ-1" vertex="1">
          <mxGeometry x="513" y="715" width="180" height="30" as="geometry" />
        </mxCell>
        <mxCell id="VAMYPOj8Qz0PQbzMC9rJ-103" value="" style="shape=partialRectangle;connectable=0;fillColor=none;top=0;left=0;bottom=0;right=0;editable=1;overflow=hidden;" parent="VAMYPOj8Qz0PQbzMC9rJ-102" vertex="1">
          <mxGeometry width="30" height="30" as="geometry" />
        </mxCell>
        <mxCell id="VAMYPOj8Qz0PQbzMC9rJ-104" value="WorkDoneStatus" style="shape=partialRectangle;connectable=0;fillColor=none;top=0;left=0;bottom=0;right=0;align=left;spacingLeft=6;overflow=hidden;" parent="VAMYPOj8Qz0PQbzMC9rJ-102" vertex="1">
          <mxGeometry x="30" width="150" height="30" as="geometry" />
        </mxCell>
        <mxCell id="VAMYPOj8Qz0PQbzMC9rJ-105" value="" style="fontSize=12;html=1;endArrow=ERzeroToMany;startArrow=ERmandOne;exitX=0.5;exitY=0;exitDx=0;exitDy=0;entryX=0.25;entryY=1;entryDx=0;entryDy=0;dashed=1;edgeStyle=orthogonalEdgeStyle;" parent="VAMYPOj8Qz0PQbzMC9rJ-1" source="VAMYPOj8Qz0PQbzMC9rJ-29" target="VAMYPOj8Qz0PQbzMC9rJ-64" edge="1">
          <mxGeometry width="100" height="100" relative="1" as="geometry">
            <mxPoint x="160" y="386" as="sourcePoint" />
            <mxPoint x="260" y="286" as="targetPoint" />
          </mxGeometry>
        </mxCell>
        <mxCell id="VAMYPOj8Qz0PQbzMC9rJ-106" value="" style="edgeStyle=orthogonalEdgeStyle;fontSize=12;html=1;endArrow=ERzeroToMany;startArrow=ERmandOne;entryX=0;entryY=0.5;entryDx=0;entryDy=0;exitX=1;exitY=0.5;exitDx=0;exitDy=0;dashed=1;" parent="VAMYPOj8Qz0PQbzMC9rJ-1" source="VAMYPOj8Qz0PQbzMC9rJ-78" target="VAMYPOj8Qz0PQbzMC9rJ-96" edge="1">
          <mxGeometry width="100" height="100" relative="1" as="geometry">
            <mxPoint x="350.0000000000002" y="681" as="sourcePoint" />
            <mxPoint x="450" y="581" as="targetPoint" />
          </mxGeometry>
        </mxCell>
        <mxCell id="VAMYPOj8Qz0PQbzMC9rJ-107" value="" style="edgeStyle=orthogonalEdgeStyle;fontSize=12;html=1;endArrow=ERzeroToMany;startArrow=ERmandOne;entryX=0;entryY=0.5;entryDx=0;entryDy=0;dashed=1;" parent="VAMYPOj8Qz0PQbzMC9rJ-1" source="VAMYPOj8Qz0PQbzMC9rJ-42" target="VAMYPOj8Qz0PQbzMC9rJ-99" edge="1">
          <mxGeometry width="100" height="100" relative="1" as="geometry">
            <mxPoint x="329.0000000000002" y="788" as="sourcePoint" />
            <mxPoint x="429" y="688" as="targetPoint" />
          </mxGeometry>
        </mxCell>
        <mxCell id="VAMYPOj8Qz0PQbzMC9rJ-108" value="" style="edgeStyle=entityRelationEdgeStyle;fontSize=12;html=1;endArrow=ERzeroToMany;startArrow=ERmandOne;entryX=1;entryY=0.5;entryDx=0;entryDy=0;exitX=0;exitY=0.5;exitDx=0;exitDy=0;dashed=1;" parent="VAMYPOj8Qz0PQbzMC9rJ-1" source="VAMYPOj8Qz0PQbzMC9rJ-12" target="VAMYPOj8Qz0PQbzMC9rJ-71" edge="1">
          <mxGeometry width="100" height="100" relative="1" as="geometry">
            <mxPoint x="302.0000000000002" y="509" as="sourcePoint" />
            <mxPoint x="402" y="409" as="targetPoint" />
          </mxGeometry>
        </mxCell>
        <mxCell id="VAMYPOj8Qz0PQbzMC9rJ-109" value="" style="shape=partialRectangle;collapsible=0;dropTarget=0;pointerEvents=0;fillColor=none;top=0;left=0;bottom=0;right=0;points=[[0,0.5],[1,0.5]];portConstraint=eastwest;" parent="VAMYPOj8Qz0PQbzMC9rJ-1" vertex="1">
          <mxGeometry x="524" y="276" width="180" height="30" as="geometry" />
        </mxCell>
        <mxCell id="VAMYPOj8Qz0PQbzMC9rJ-110" value="FK" style="shape=partialRectangle;connectable=0;fillColor=none;top=0;left=0;bottom=0;right=0;editable=1;overflow=hidden;fontStyle=1" parent="VAMYPOj8Qz0PQbzMC9rJ-109" vertex="1">
          <mxGeometry width="30" height="30" as="geometry" />
        </mxCell>
        <mxCell id="VAMYPOj8Qz0PQbzMC9rJ-111" value="ProjectManager" style="shape=partialRectangle;connectable=0;fillColor=none;top=0;left=0;bottom=0;right=0;align=left;spacingLeft=6;overflow=hidden;fontStyle=1" parent="VAMYPOj8Qz0PQbzMC9rJ-109" vertex="1">
          <mxGeometry x="30" width="150" height="30" as="geometry" />
        </mxCell>
        <mxCell id="VAMYPOj8Qz0PQbzMC9rJ-112" value="" style="edgeStyle=orthogonalEdgeStyle;fontSize=12;html=1;endArrow=ERmandOne;startArrow=ERmandOne;dashed=1;entryX=0;entryY=0.5;entryDx=0;entryDy=0;exitX=1;exitY=0.5;exitDx=0;exitDy=0;" parent="VAMYPOj8Qz0PQbzMC9rJ-1" source="VAMYPOj8Qz0PQbzMC9rJ-30" target="VAMYPOj8Qz0PQbzMC9rJ-109" edge="1">
          <mxGeometry width="100" height="100" relative="1" as="geometry">
            <mxPoint x="272" y="479" as="sourcePoint" />
            <mxPoint x="372" y="379" as="targetPoint" />
          </mxGeometry>
        </mxCell>
        <mxCell id="v-2rWL2m7GroYc4vsX9k-0" value="" style="shape=partialRectangle;collapsible=0;dropTarget=0;pointerEvents=0;fillColor=none;top=0;left=0;bottom=0;right=0;points=[[0,0.5],[1,0.5]];portConstraint=eastwest;fontStyle=1" vertex="1" parent="VAMYPOj8Qz0PQbzMC9rJ-1">
          <mxGeometry x="513" y="742" width="180" height="30" as="geometry" />
        </mxCell>
        <mxCell id="v-2rWL2m7GroYc4vsX9k-1" value="FK1" style="shape=partialRectangle;connectable=0;fillColor=none;top=0;left=0;bottom=0;right=0;editable=1;overflow=hidden;fontStyle=1" vertex="1" parent="v-2rWL2m7GroYc4vsX9k-0">
          <mxGeometry width="30" height="30" as="geometry" />
        </mxCell>
        <mxCell id="v-2rWL2m7GroYc4vsX9k-2" value="EmployeeID" style="shape=partialRectangle;connectable=0;fillColor=none;top=0;left=0;bottom=0;right=0;align=left;spacingLeft=6;overflow=hidden;fontStyle=1" vertex="1" parent="v-2rWL2m7GroYc4vsX9k-0">
          <mxGeometry x="30" width="150" height="30" as="geometry" />
        </mxCell>
      </root>
    </mxGraphModel>
  </diagram>
</mxfile>
